# Blender 3.3.1
# www.blender.org
mtllib TrashContainer.mtl
o Cube
v 0.695349 2.353396 -1.792497
v 0.695349 0.103396 -1.792497
v 0.695349 2.353396 2.207503
v 0.695349 0.103396 2.207503
v -1.304651 3.103396 -1.792497
v -1.304651 0.103396 -1.792497
v -1.304651 3.103396 2.207503
v -1.304651 0.103396 2.207503
v -1.304651 0.103396 -1.892497
v -1.304651 0.103396 2.107503
v 0.695349 0.103396 -1.892497
v 0.695349 2.353396 -1.892497
v -1.304651 3.103396 2.107503
v 0.695349 2.353396 2.107503
v 0.695349 0.103396 2.107503
v -1.304651 3.103396 -1.892497
v -1.304651 0.103396 -1.792497
v -1.304651 0.103396 2.207503
v 0.695349 0.103396 -1.792497
v 0.695349 2.353396 -1.792497
v -1.304651 3.103396 2.207503
v 0.695349 2.353396 2.207503
v 0.695349 0.103396 2.207503
v -1.304651 3.103396 -1.792497
v -1.304651 0.103396 -1.892497
v -1.304651 0.103396 2.204494
v 0.797365 0.103396 -1.892497
v 0.695349 2.353396 -1.892497
v -1.304651 3.103396 2.204494
v 0.695349 2.353396 2.204494
v 0.797365 0.103396 2.204494
v -1.304651 3.103396 -1.892497
v -1.204651 0.103396 -1.892497
v -1.204651 0.103396 2.204494
v 0.795349 2.353396 -1.892497
v 0.795349 0.103396 -1.892497
v -1.204651 3.066342 2.204494
v 0.795349 2.353396 2.204494
v 0.795349 0.103396 2.204494
v -1.204651 3.062413 -1.892497
v -1.304651 0.003396 -1.892497
v -1.304651 0.003396 2.204494
v 0.797365 0.003396 -1.892497
v 0.797365 0.003396 2.204494
vn -0.0000 -0.0000 1.0000
vn -1.0000 -0.0000 -0.0000
vn -0.0000 -1.0000 -0.0000
vn 1.0000 -0.0000 -0.0000
vn -0.0000 -0.0000 -1.0000
vn -0.0000 1.0000 -0.0000
vn 0.3511 0.9363 -0.0000
vn -0.3511 -0.9363 -0.0000
vn -0.3635 -0.9316 0.0004
vt 0.850326 0.579878
vt 0.761985 0.579878
vt 0.850326 0.668219
vt 0.761985 0.668219
vt 0.850326 0.491537
vt 0.673643 0.579878
vt 0.761985 0.491537
vt 0.850326 0.756560
vt 0.850326 0.403196
vt 0.761985 0.756560
vt 0.761985 0.403196
vt 0.673643 0.668219
vt 0.673643 0.579878
vt 0.761985 0.491537
vt 0.761985 0.756560
vt 0.761985 0.403196
vt 0.673643 0.668219
vt 0.761985 0.579878
vt 0.850326 0.579878
vt 0.850326 0.756560
vt 0.850326 0.403196
vt 0.850326 0.668219
vt 0.761985 0.668219
vt 0.850326 0.491537
vt 0.431540 0.656233
vt 0.125000 0.500000
vt 0.072923 0.623897
vt 0.375000 1.000000
vt 0.431540 0.906108
vt 0.125000 0.750000
vt 0.375000 0.500000
vt 0.701569 0.044526
vt 0.072923 0.873897
vt 0.951569 0.044526
vt 0.322923 0.873897
vt 0.625000 0.500000
vt 0.181665 0.906108
vt 0.625000 1.000000
vt 0.625000 0.000000
vt 0.951569 0.294526
vt 0.625000 0.750000
vt 0.375000 0.750000
vt 0.701569 0.294526
vt 0.181665 0.656233
vt 0.322923 0.623897
vt 0.625000 0.250000
vt 0.375000 0.250000
vt 0.118643 0.056254
vt 0.125000 0.500000
vt 0.009882 0.982538
vt 0.013531 0.948024
vt 0.375000 1.000000
vt 0.008926 0.738488
vt 0.125000 0.750000
vt 0.009882 0.732538
vt 0.118643 0.306254
vt 0.490932 0.214479
vt 0.375000 0.500000
vt 0.011228 0.901926
vt 0.013531 0.980780
vt 0.368643 0.306254
vt 0.740932 0.214479
vt 0.625000 0.500000
vt 0.625000 1.000000
vt 0.625000 0.000000
vt 0.625000 0.750000
vt 0.008926 0.988488
vt 0.375000 0.750000
vt 0.011228 0.923662
vt 0.368643 0.056254
vt 0.625000 0.250000
vt 0.375000 0.250000
vt 0.125000 0.500000
vt 0.375000 1.000000
vt 0.375000 0.000000
vt 0.125000 0.750000
vt 0.245334 0.586371
vt 0.740932 0.214479
vt 0.625000 0.500000
vt 0.557215 0.777237
vt 0.490932 0.214479
vt 0.375000 0.500000
vt 0.625000 1.000000
vt 0.625000 0.000000
vt 0.421516 0.274491
vt 0.625000 0.750000
vt 0.733397 0.465357
vt 0.375000 0.750000
vt 0.625000 0.250000
vt 0.125000 0.500000
vt 0.009882 0.982538
vt 0.013531 0.948024
vt 0.008926 0.738488
vt 0.125000 0.750000
vt 0.009882 0.732538
vt 0.375000 0.500000
vt 0.011228 0.901926
vt 0.013531 0.980780
vt 0.008926 0.988488
vt 0.375000 0.750000
vt 0.011228 0.923662
s 0
usemtl Material.002
f 4/4/1 3/3/1 7/8/1 8/10/1
f 8/11/2 7/9/2 5/5/2 6/7/2
f 6/6/3 2/2/3 4/4/3 8/12/3
f 2/2/4 1/1/4 3/3/4 4/4/4
f 6/7/5 5/5/5 1/1/5 2/2/5
f 15/23/5 10/15/5 13/20/5 14/22/5
f 10/16/4 9/14/4 16/24/4 13/21/4
f 9/13/6 10/17/6 15/23/6 11/18/6
f 11/18/2 15/23/2 14/22/2 12/19/2
f 9/14/1 11/18/1 12/19/1 16/24/1
f 3/3/7 14/22/7 13/20/7 7/8/7
f 7/9/6 13/21/6 16/24/6 5/5/6
f 1/1/4 12/19/4 14/22/4 3/3/4
f 5/5/8 16/24/8 12/19/8 1/1/8
f 23/42/5 18/28/5 21/38/5 22/41/5
f 18/29/4 17/25/4 24/44/4 21/37/4
f 17/26/6 18/30/6 23/42/6 19/31/6
f 19/32/2 23/43/2 22/40/2 20/34/2
f 17/27/1 19/33/1 20/35/1 24/45/1
f 31/68/1 30/66/1 29/64/1 26/52/1
f 26/52/5 29/64/5 37/83/5 34/74/5
f 31/67/1 26/53/1 42/93/1 44/99/1
f 32/71/1 25/47/1 33/72/1 40/89/1
f 25/48/5 32/70/5 28/61/5 27/56/5
f 22/41/8 21/38/8 29/64/8 30/66/8
f 21/39/6 24/46/6 32/71/6 29/65/6
f 20/36/6 22/41/6 30/66/6 28/63/6
f 24/46/7 20/36/7 28/63/7 32/71/7
f 34/75/2 37/84/2 40/89/2 33/72/2
f 36/80/4 35/77/4 38/85/4 39/87/4
f 30/66/1 31/68/1 39/88/1 38/86/1
f 27/57/5 28/62/5 35/78/5 36/81/5
f 31/68/6 27/58/6 36/82/6 39/88/6
f 25/49/6 26/54/6 34/76/6 33/73/6
f 29/65/9 32/71/9 40/89/9 37/84/9
f 28/63/6 30/66/6 38/86/6 35/79/6
f 41/90/3 43/96/3 44/100/3 42/94/3
f 26/55/2 25/50/2 41/91/2 42/95/2
f 27/59/4 31/69/4 44/101/4 43/97/4
f 25/51/5 27/60/5 43/98/5 41/92/5
o Plane.002
v -1.304460 3.102778 0.158865
v 0.695683 2.353159 0.158865
v -1.304460 3.102778 -1.841863
v 0.695683 2.353159 -1.841863
v -1.304474 3.172778 -1.841863
v -1.304474 3.172778 0.158865
v 0.695669 2.423159 0.158865
v 0.695669 2.423159 -1.841863
v 0.795683 2.353178 0.158865
v 0.795683 2.353178 -1.841863
v 0.795670 2.423178 0.158865
v 0.795670 2.423178 -1.841863
v -1.304460 3.102778 -1.556045
v -1.304460 3.102778 -1.270226
v -1.304460 3.102778 -0.984408
v -1.304460 3.102778 -0.698590
v -1.304460 3.102778 -0.412772
v -1.304460 3.102778 -0.126953
v 0.695683 2.353159 -0.126953
v 0.695683 2.353159 -0.412772
v 0.695683 2.353159 -0.698590
v 0.695683 2.353159 -0.984408
v 0.695683 2.353159 -1.270227
v 0.695683 2.353159 -1.556045
v -1.304474 3.172778 -1.556045
v -1.304474 3.172778 -1.270226
v -1.304474 3.172778 -0.984408
v -1.304474 3.172778 -0.698590
v -1.304474 3.172778 -0.412772
v -1.304474 3.172778 -0.126953
v 0.695669 2.423159 -0.126953
v 0.695669 2.423159 -0.412772
v 0.695669 2.423159 -0.698590
v 0.695669 2.423159 -0.984408
v 0.695669 2.423159 -1.270227
v 0.695669 2.423159 -1.556045
v 0.795683 2.353178 -0.126953
v 0.795683 2.353178 -0.412772
v 0.795683 2.353178 -0.698590
v 0.795683 2.353178 -0.984408
v 0.795683 2.353178 -1.270227
v 0.795683 2.353178 -1.556045
v 0.795670 2.423178 -0.126953
v 0.795670 2.423178 -0.412772
v 0.795670 2.423178 -0.698590
v 0.795670 2.423178 -0.984408
v 0.795670 2.423178 -1.270227
v 0.795670 2.423178 -1.556045
v -1.304460 3.102778 -0.317499
v -1.304460 3.102778 -0.222226
v 0.695683 2.353159 -0.222226
v 0.695683 2.353159 -0.317499
v -1.304466 3.132778 -0.317499
v -1.304466 3.132778 -0.222226
v 0.695677 2.383159 -0.222226
v 0.695677 2.383159 -0.317499
v 0.795683 2.353178 -0.222226
v 0.795683 2.353178 -0.317499
v 0.795677 2.383178 -0.222226
v 0.795677 2.383178 -0.317499
v -1.304460 3.102778 -0.889135
v -1.304460 3.102778 -0.793863
v 0.695683 2.353159 -0.793863
v 0.695683 2.353159 -0.889136
v -1.304466 3.132778 -0.889135
v -1.304466 3.132778 -0.793863
v 0.695677 2.383159 -0.793863
v 0.695677 2.383159 -0.889136
v 0.795683 2.353178 -0.793863
v 0.795683 2.353178 -0.889136
v 0.795677 2.383178 -0.793863
v 0.795677 2.383178 -0.889136
v -1.304460 3.102778 -1.460772
v -1.304460 3.102778 -1.365499
v 0.695683 2.353159 -1.365499
v 0.695683 2.353159 -1.460772
v -1.304466 3.132778 -1.460772
v -1.304466 3.132778 -1.365499
v 0.695677 2.383159 -1.365499
v 0.695677 2.383159 -1.460772
v 0.795683 2.353178 -1.365499
v 0.795683 2.353178 -1.460772
v 0.795677 2.383178 -1.365499
v 0.795677 2.383178 -1.460772
vn -0.3509 -0.9364 -0.0000
vn 0.3509 0.9364 -0.0000
vn -0.0000 -0.0000 -1.0000
vn -0.0000 -0.0000 1.0000
vn -0.0002 1.0000 -0.0000
vn -1.0000 -0.0002 -0.0000
vn 1.0000 0.0002 -0.0000
vn 0.0002 -1.0000 -0.0000
vn -0.0002 0.9220 -0.3871
vn 0.3266 0.8715 0.3659
vn 0.3266 0.8715 -0.3659
vn -0.0002 0.9220 0.3871
vt 0.000000 0.000000
vt 1.000000 0.000000
vt 0.000000 1.000000
vt 1.000000 1.000000
vt 0.000000 1.000000
vt 0.000000 0.000000
vt 1.000000 0.000000
vt 1.000000 1.000000
vt 1.000000 0.000000
vt 1.000000 1.000000
vt 1.000000 0.000000
vt 1.000000 1.000000
vt 0.000000 0.857143
vt 0.000000 0.714286
vt 0.000000 0.571429
vt 0.000000 0.428571
vt 0.000000 0.285714
vt 0.000000 0.142857
vt 1.000000 0.142857
vt 1.000000 0.285714
vt 1.000000 0.428571
vt 1.000000 0.571429
vt 1.000000 0.714286
vt 1.000000 0.857143
vt 0.000000 0.857143
vt 0.000000 0.714286
vt 0.000000 0.571429
vt 0.000000 0.428571
vt 0.000000 0.285714
vt 0.000000 0.142857
vt 1.000000 0.142857
vt 1.000000 0.285714
vt 1.000000 0.428571
vt 1.000000 0.571429
vt 1.000000 0.714286
vt 1.000000 0.857143
vt 1.000000 0.142857
vt 1.000000 0.285714
vt 1.000000 0.428571
vt 1.000000 0.571429
vt 1.000000 0.714286
vt 1.000000 0.857143
vt 1.000000 0.142857
vt 1.000000 0.285714
vt 1.000000 0.428571
vt 1.000000 0.571429
vt 1.000000 0.714286
vt 1.000000 0.857143
vt 0.000000 0.238095
vt 0.000000 0.190476
vt 1.000000 0.190476
vt 1.000000 0.238095
vt 0.000000 0.238095
vt 0.000000 0.190476
vt 1.000000 0.190476
vt 1.000000 0.238095
vt 1.000000 0.190476
vt 1.000000 0.238095
vt 1.000000 0.190476
vt 1.000000 0.238095
vt 0.000000 0.523810
vt 0.000000 0.476191
vt 1.000000 0.476190
vt 1.000000 0.523809
vt 0.000000 0.523810
vt 0.000000 0.476191
vt 1.000000 0.476191
vt 1.000000 0.523810
vt 1.000000 0.476191
vt 1.000000 0.523810
vt 1.000000 0.476191
vt 1.000000 0.523810
vt 0.000000 0.809524
vt 0.000000 0.761905
vt 1.000000 0.761905
vt 1.000000 0.809524
vt 0.000000 0.809524
vt 0.000000 0.761905
vt 1.000000 0.761905
vt 1.000000 0.809524
vt 1.000000 0.761905
vt 1.000000 0.809524
vt 1.000000 0.761905
vt 1.000000 0.809524
s 0
usemtl Material.001
f 57/114/10 47/104/10 48/105/10 68/125/10
f 69/126/11 80/137/11 52/109/11 49/106/11
f 48/105/12 47/104/12 49/106/12 52/109/12
f 45/102/13 46/103/13 51/108/13 50/107/13
f 75/132/14 51/108/14 55/112/14 87/144/14
f 62/119/15 45/102/15 50/107/15 74/131/15
f 86/143/16 54/111/16 56/113/16 92/149/16
f 68/125/17 48/105/17 54/111/17 86/143/17
f 48/105/12 52/109/12 56/113/12 54/111/12
f 51/108/13 46/103/13 53/110/13 55/112/13
f 46/103/17 63/120/17 81/138/17 53/110/17
f 96/153/17 64/121/17 82/139/17 102/159/17
f 64/121/17 65/122/17 83/140/17 82/139/17
f 108/165/17 66/123/17 84/141/17 114/171/17
f 66/123/17 67/124/17 85/142/17 84/141/17
f 120/177/17 68/125/17 86/143/17 126/183/17
f 53/110/16 81/138/16 87/144/16 55/112/16
f 102/159/16 82/139/16 88/145/16 104/161/16
f 82/139/16 83/140/16 89/146/16 88/145/16
f 114/171/16 84/141/16 90/147/16 116/173/16
f 84/141/16 85/142/16 91/148/16 90/147/16
f 126/183/16 86/143/16 92/149/16 128/185/16
f 47/104/15 57/114/15 69/126/15 49/106/15
f 118/175/15 58/115/15 70/127/15 122/179/15
f 58/115/15 59/116/15 71/128/15 70/127/15
f 106/163/15 60/117/15 72/129/15 110/167/15
f 60/117/15 61/118/15 73/130/15 72/129/15
f 94/151/15 62/119/15 74/131/15 98/155/15
f 52/109/14 80/137/14 92/149/14 56/113/14
f 123/180/18 79/136/18 91/148/18 127/184/18
f 79/136/14 78/135/14 90/147/14 91/148/14
f 111/168/18 77/134/18 89/146/18 115/172/18
f 77/134/14 76/133/14 88/145/14 89/146/14
f 99/156/18 75/132/18 87/144/18 103/160/18
f 50/107/11 51/108/11 75/132/11 74/131/11
f 97/154/19 100/157/19 76/133/19 73/130/19
f 73/130/11 76/133/11 77/134/11 72/129/11
f 109/166/19 112/169/19 78/135/19 71/128/19
f 71/128/11 78/135/11 79/136/11 70/127/11
f 121/178/19 124/181/19 80/137/19 69/126/19
f 45/102/10 62/119/10 63/120/10 46/103/10
f 93/150/10 61/118/10 64/121/10 96/153/10
f 61/118/10 60/117/10 65/122/10 64/121/10
f 105/162/10 59/116/10 66/123/10 108/165/10
f 59/116/10 58/115/10 67/124/10 66/123/10
f 117/174/10 57/114/10 68/125/10 120/177/10
f 62/119/10 94/151/10 95/152/10 63/120/10
f 94/151/10 93/150/10 96/153/10 95/152/10
f 74/131/20 75/132/20 99/156/20 98/155/20
f 98/155/11 99/156/11 100/157/11 97/154/11
f 76/133/21 100/157/21 104/161/21 88/145/21
f 100/157/14 99/156/14 103/160/14 104/161/14
f 61/118/15 93/150/15 97/154/15 73/130/15
f 93/150/15 94/151/15 98/155/15 97/154/15
f 81/138/16 101/158/16 103/160/16 87/144/16
f 101/158/16 102/159/16 104/161/16 103/160/16
f 63/120/17 95/152/17 101/158/17 81/138/17
f 95/152/17 96/153/17 102/159/17 101/158/17
f 60/117/10 106/163/10 107/164/10 65/122/10
f 106/163/10 105/162/10 108/165/10 107/164/10
f 72/129/20 77/134/20 111/168/20 110/167/20
f 110/167/11 111/168/11 112/169/11 109/166/11
f 78/135/21 112/169/21 116/173/21 90/147/21
f 112/169/14 111/168/14 115/172/14 116/173/14
f 59/116/15 105/162/15 109/166/15 71/128/15
f 105/162/15 106/163/15 110/167/15 109/166/15
f 83/140/16 113/170/16 115/172/16 89/146/16
f 113/170/16 114/171/16 116/173/16 115/172/16
f 65/122/17 107/164/17 113/170/17 83/140/17
f 107/164/17 108/165/17 114/171/17 113/170/17
f 58/115/10 118/175/10 119/176/10 67/124/10
f 118/175/10 117/174/10 120/177/10 119/176/10
f 70/127/20 79/136/20 123/180/20 122/179/20
f 122/179/11 123/180/11 124/181/11 121/178/11
f 80/137/21 124/181/21 128/185/21 92/149/21
f 124/181/14 123/180/14 127/184/14 128/185/14
f 57/114/15 117/174/15 121/178/15 69/126/15
f 117/174/15 118/175/15 122/179/15 121/178/15
f 85/142/16 125/182/16 127/184/16 91/148/16
f 125/182/16 126/183/16 128/185/16 127/184/16
f 67/124/17 119/176/17 125/182/17 85/142/17
f 119/176/17 120/177/17 126/183/17 125/182/17
o Plane.001
v -1.304456 3.102952 2.160347
v 0.695687 2.353333 2.160347
v -1.304456 3.102952 0.159619
v 0.695687 2.353333 0.159619
v -1.304469 3.172952 0.159619
v -1.304469 3.172952 2.160347
v 0.695674 2.423333 2.160347
v 0.695674 2.423333 0.159619
v 0.795687 2.353352 2.160347
v 0.795687 2.353352 0.159619
v 0.795674 2.423352 2.160347
v 0.795674 2.423352 0.159619
v -1.304456 3.102952 0.445438
v -1.304456 3.102952 0.731256
v -1.304456 3.102952 1.017074
v -1.304456 3.102952 1.302893
v -1.304456 3.102952 1.588711
v -1.304456 3.102952 1.874529
v 0.695687 2.353333 1.874529
v 0.695687 2.353333 1.588711
v 0.695687 2.353333 1.302892
v 0.695687 2.353333 1.017074
v 0.695687 2.353333 0.731256
v 0.695687 2.353333 0.445438
v -1.304469 3.172952 0.445438
v -1.304469 3.172952 0.731256
v -1.304469 3.172952 1.017074
v -1.304469 3.172952 1.302893
v -1.304469 3.172952 1.588711
v -1.304469 3.172952 1.874529
v 0.695674 2.423333 1.874529
v 0.695674 2.423333 1.588711
v 0.695674 2.423333 1.302892
v 0.695674 2.423333 1.017074
v 0.695674 2.423333 0.731256
v 0.695674 2.423333 0.445438
v 0.795687 2.353352 1.874529
v 0.795687 2.353352 1.588711
v 0.795687 2.353352 1.302892
v 0.795687 2.353352 1.017074
v 0.795687 2.353352 0.731256
v 0.795687 2.353352 0.445438
v 0.795674 2.423352 1.874529
v 0.795674 2.423352 1.588711
v 0.795674 2.423352 1.302892
v 0.795674 2.423352 1.017074
v 0.795674 2.423352 0.731256
v 0.795674 2.423352 0.445438
v -1.304456 3.102952 1.683984
v -1.304456 3.102952 1.779256
v 0.695687 2.353333 1.779256
v 0.695687 2.353333 1.683983
v -1.304462 3.132952 1.683984
v -1.304462 3.132952 1.779256
v 0.695682 2.383333 1.779256
v 0.695682 2.383333 1.683983
v 0.795687 2.353352 1.779256
v 0.795687 2.353352 1.683983
v 0.795682 2.383352 1.779256
v 0.795682 2.383352 1.683983
v -1.304456 3.102952 1.112347
v -1.304456 3.102952 1.207620
v 0.695687 2.353333 1.207620
v 0.695687 2.353333 1.112347
v -1.304462 3.132952 1.112347
v -1.304462 3.132952 1.207620
v 0.695682 2.383333 1.207620
v 0.695682 2.383333 1.112347
v 0.795687 2.353352 1.207620
v 0.795687 2.353352 1.112347
v 0.795682 2.383352 1.207620
v 0.795682 2.383352 1.112347
v -1.304456 3.102952 0.540710
v -1.304456 3.102952 0.635983
v 0.695687 2.353333 0.635983
v 0.695687 2.353333 0.540710
v -1.304462 3.132952 0.540710
v -1.304462 3.132952 0.635983
v 0.695682 2.383333 0.635983
v 0.695682 2.383333 0.540710
v 0.795687 2.353352 0.635983
v 0.795687 2.353352 0.540710
v 0.795682 2.383352 0.635983
v 0.795682 2.383352 0.540710
vn -0.3509 -0.9364 -0.0000
vn 0.3509 0.9364 -0.0000
vn -0.0000 -0.0000 -1.0000
vn -0.0000 -0.0000 1.0000
vn -0.0002 1.0000 -0.0000
vn -1.0000 -0.0002 -0.0000
vn 1.0000 0.0002 -0.0000
vn 0.0002 -1.0000 -0.0000
vn -0.0002 0.9220 -0.3871
vn 0.3266 0.8715 0.3659
vn 0.3266 0.8715 -0.3659
vn -0.0002 0.9220 0.3871
vt 0.000000 0.000000
vt 1.000000 0.000000
vt 0.000000 1.000000
vt 1.000000 1.000000
vt 0.000000 1.000000
vt 0.000000 0.000000
vt 1.000000 0.000000
vt 1.000000 1.000000
vt 1.000000 0.000000
vt 1.000000 1.000000
vt 1.000000 0.000000
vt 1.000000 1.000000
vt 0.000000 0.857143
vt 0.000000 0.714286
vt 0.000000 0.571429
vt 0.000000 0.428571
vt 0.000000 0.285714
vt 0.000000 0.142857
vt 1.000000 0.142857
vt 1.000000 0.285714
vt 1.000000 0.428571
vt 1.000000 0.571429
vt 1.000000 0.714286
vt 1.000000 0.857143
vt 0.000000 0.857143
vt 0.000000 0.714286
vt 0.000000 0.571429
vt 0.000000 0.428571
vt 0.000000 0.285714
vt 0.000000 0.142857
vt 1.000000 0.142857
vt 1.000000 0.285714
vt 1.000000 0.428571
vt 1.000000 0.571429
vt 1.000000 0.714286
vt 1.000000 0.857143
vt 1.000000 0.142857
vt 1.000000 0.285714
vt 1.000000 0.428571
vt 1.000000 0.571429
vt 1.000000 0.714286
vt 1.000000 0.857143
vt 1.000000 0.142857
vt 1.000000 0.285714
vt 1.000000 0.428571
vt 1.000000 0.571429
vt 1.000000 0.714286
vt 1.000000 0.857143
vt 0.000000 0.238095
vt 0.000000 0.190476
vt 1.000000 0.190476
vt 1.000000 0.238095
vt 0.000000 0.238095
vt 0.000000 0.190476
vt 1.000000 0.190476
vt 1.000000 0.238095
vt 1.000000 0.190476
vt 1.000000 0.238095
vt 1.000000 0.190476
vt 1.000000 0.238095
vt 0.000000 0.523810
vt 0.000000 0.476191
vt 1.000000 0.476190
vt 1.000000 0.523809
vt 0.000000 0.523810
vt 0.000000 0.476191
vt 1.000000 0.476191
vt 1.000000 0.523810
vt 1.000000 0.476191
vt 1.000000 0.523810
vt 1.000000 0.476191
vt 1.000000 0.523810
vt 0.000000 0.809524
vt 0.000000 0.761905
vt 1.000000 0.761905
vt 1.000000 0.809524
vt 0.000000 0.809524
vt 0.000000 0.761905
vt 1.000000 0.761905
vt 1.000000 0.809524
vt 1.000000 0.761905
vt 1.000000 0.809524
vt 1.000000 0.761905
vt 1.000000 0.809524
s 0
usemtl Material.001
f 141/198/22 131/188/22 132/189/22 152/209/22
f 153/210/23 164/221/23 136/193/23 133/190/23
f 132/189/24 131/188/24 133/190/24 136/193/24
f 129/186/25 130/187/25 135/192/25 134/191/25
f 159/216/26 135/192/26 139/196/26 171/228/26
f 146/203/27 129/186/27 134/191/27 158/215/27
f 170/227/28 138/195/28 140/197/28 176/233/28
f 152/209/29 132/189/29 138/195/29 170/227/29
f 132/189/24 136/193/24 140/197/24 138/195/24
f 135/192/25 130/187/25 137/194/25 139/196/25
f 130/187/29 147/204/29 165/222/29 137/194/29
f 180/237/29 148/205/29 166/223/29 186/243/29
f 148/205/29 149/206/29 167/224/29 166/223/29
f 192/249/29 150/207/29 168/225/29 198/255/29
f 150/207/29 151/208/29 169/226/29 168/225/29
f 204/261/29 152/209/29 170/227/29 210/267/29
f 137/194/28 165/222/28 171/228/28 139/196/28
f 186/243/28 166/223/28 172/229/28 188/245/28
f 166/223/28 167/224/28 173/230/28 172/229/28
f 198/255/28 168/225/28 174/231/28 200/257/28
f 168/225/28 169/226/28 175/232/28 174/231/28
f 210/267/28 170/227/28 176/233/28 212/269/28
f 131/188/27 141/198/27 153/210/27 133/190/27
f 202/259/27 142/199/27 154/211/27 206/263/27
f 142/199/27 143/200/27 155/212/27 154/211/27
f 190/247/27 144/201/27 156/213/27 194/251/27
f 144/201/27 145/202/27 157/214/27 156/213/27
f 178/235/27 146/203/27 158/215/27 182/239/27
f 136/193/26 164/221/26 176/233/26 140/197/26
f 207/264/30 163/220/30 175/232/30 211/268/30
f 163/220/26 162/219/26 174/231/26 175/232/26
f 195/252/30 161/218/30 173/230/30 199/256/30
f 161/218/26 160/217/26 172/229/26 173/230/26
f 183/240/30 159/216/30 171/228/30 187/244/30
f 134/191/23 135/192/23 159/216/23 158/215/23
f 181/238/31 184/241/31 160/217/31 157/214/31
f 157/214/23 160/217/23 161/218/23 156/213/23
f 193/250/31 196/253/31 162/219/31 155/212/31
f 155/212/23 162/219/23 163/220/23 154/211/23
f 205/262/31 208/265/31 164/221/31 153/210/31
f 129/186/22 146/203/22 147/204/22 130/187/22
f 177/234/22 145/202/22 148/205/22 180/237/22
f 145/202/22 144/201/22 149/206/22 148/205/22
f 189/246/22 143/200/22 150/207/22 192/249/22
f 143/200/22 142/199/22 151/208/22 150/207/22
f 201/258/22 141/198/22 152/209/22 204/261/22
f 146/203/22 178/235/22 179/236/22 147/204/22
f 178/235/22 177/234/22 180/237/22 179/236/22
f 158/215/32 159/216/32 183/240/32 182/239/32
f 182/239/23 183/240/23 184/241/23 181/238/23
f 160/217/33 184/241/33 188/245/33 172/229/33
f 184/241/26 183/240/26 187/244/26 188/245/26
f 145/202/27 177/234/27 181/238/27 157/214/27
f 177/234/27 178/235/27 182/239/27 181/238/27
f 165/222/28 185/242/28 187/244/28 171/228/28
f 185/242/28 186/243/28 188/245/28 187/244/28
f 147/204/29 179/236/29 185/242/29 165/222/29
f 179/236/29 180/237/29 186/243/29 185/242/29
f 144/201/22 190/247/22 191/248/22 149/206/22
f 190/247/22 189/246/22 192/249/22 191/248/22
f 156/213/32 161/218/32 195/252/32 194/251/32
f 194/251/23 195/252/23 196/253/23 193/250/23
f 162/219/33 196/253/33 200/257/33 174/231/33
f 196/253/26 195/252/26 199/256/26 200/257/26
f 143/200/27 189/246/27 193/250/27 155/212/27
f 189/246/27 190/247/27 194/251/27 193/250/27
f 167/224/28 197/254/28 199/256/28 173/230/28
f 197/254/28 198/255/28 200/257/28 199/256/28
f 149/206/29 191/248/29 197/254/29 167/224/29
f 191/248/29 192/249/29 198/255/29 197/254/29
f 142/199/22 202/259/22 203/260/22 151/208/22
f 202/259/22 201/258/22 204/261/22 203/260/22
f 154/211/32 163/220/32 207/264/32 206/263/32
f 206/263/23 207/264/23 208/265/23 205/262/23
f 164/221/33 208/265/33 212/269/33 176/233/33
f 208/265/26 207/264/26 211/268/26 212/269/26
f 141/198/27 201/258/27 205/262/27 153/210/27
f 201/258/27 202/259/27 206/263/27 205/262/27
f 169/226/28 209/266/28 211/268/28 175/232/28
f 209/266/28 210/267/28 212/269/28 211/268/28
f 151/208/29 203/260/29 209/266/29 169/226/29
f 203/260/29 204/261/29 210/267/29 209/266/29
